<?xml version="1.0" encoding="UTF-8" standalone="no"?>
<!-- Created with Inkscape (http://www.inkscape.org/) -->

<svg
   xmlns:dc="http://purl.org/dc/elements/1.1/"
   xmlns:cc="http://creativecommons.org/ns#"
   xmlns:rdf="http://www.w3.org/1999/02/22-rdf-syntax-ns#"
   xmlns:svg="http://www.w3.org/2000/svg"
   xmlns="http://www.w3.org/2000/svg"
   xmlns:sodipodi="http://sodipodi.sourceforge.net/DTD/sodipodi-0.dtd"
   xmlns:inkscape="http://www.inkscape.org/namespaces/inkscape"
   width="210mm"
   height="297mm"
   viewBox="0 0 744.09448819 1052.3622047"
   id="svg2"
   version="1.1"
   inkscape:version="0.91 r13725"
   sodipodi:docname="shoppinCart.svg">
  <defs
     id="defs4" />
  <sodipodi:namedview
     id="base"
     pagecolor="#ffffff"
     bordercolor="#666666"
     borderopacity="1.0"
     inkscape:pageopacity="0.0"
     inkscape:pageshadow="2"
     inkscape:zoom="0.49497475"
     inkscape:cx="798.54518"
     inkscape:cy="538.95827"
     inkscape:document-units="px"
     inkscape:current-layer="layer1"
     showgrid="false"
     inkscape:window-width="1280"
     inkscape:window-height="753"
     inkscape:window-x="-4"
     inkscape:window-y="-4"
     inkscape:window-maximized="1" />
  <metadata
     id="metadata7">
    <rdf:RDF>
      <cc:Work
         rdf:about="">
        <dc:format>image/svg+xml</dc:format>
        <dc:type
           rdf:resource="http://purl.org/dc/dcmitype/StillImage" />
        <dc:title></dc:title>
      </cc:Work>
    </rdf:RDF>
  </metadata>
  <g
     inkscape:label="Layer 1"
     inkscape:groupmode="layer"
     id="layer1">
    <path
       style="fill:#000000"
       d="m 234.38651,823.33344 c -20.56378,-5.15484 -37.95364,-21.74679 -45.34273,-43.26204 -5.37741,-15.65795 -5.29637,-33.87467 0.21929,-49.26655 16.7466,-46.73333 70.72997,-59.26975 102.85042,-23.88473 24.66501,27.17176 24.94766,70.17092 0.63584,96.73464 -12.51004,13.66883 -25.67352,20.09739 -42.54023,20.77514 -6.15686,0.24741 -12.10627,-0.16487 -15.82259,-1.09646 z m 315.63126,0 C 529.454,818.1786 512.06414,801.58665 504.67505,780.0714 c -5.37741,-15.65795 -5.29637,-33.87467 0.21921,-49.26655 16.74669,-46.73333 70.73005,-59.26975 102.8505,-23.88473 24.66501,27.17176 24.94765,70.17092 0.63584,96.73464 -12.51012,13.66883 -25.67353,20.09739 -42.54023,20.77514 -6.15686,0.24741 -12.10627,-0.16487 -15.8226,-1.09646 z M 234.42415,650.29732 c -39.56312,-9.49658 -60.99535,-57.38814 -43.53921,-97.29067 1.82821,-4.17902 12.49458,-25.7966 23.70304,-48.03906 l 20.37905,-40.44085 -56.63096,-130.9022 -56.63103,-130.9022 -31.671944,-0.28523 -31.672019,-0.28524 0,-34.57794 0,-34.57795 51.548033,0 51.54795,0 14.8413,34.32267 14.84121,34.32266 237.65244,0.54051 237.65243,0.54052 4.93174,2.67677 c 14.14912,7.67967 21.42008,25.67309 16.6101,41.10489 -1.72288,5.52743 -106.82667,216.12576 -116.28495,233.00225 -7.97324,14.22664 -20.48723,25.3096 -34.46844,30.52681 l -7.89078,2.94451 -123.45333,0.29452 -123.45325,0.29452 -14.38884,28.66447 c -15.71828,31.31311 -16.57885,34.10372 -11.78986,38.23232 l 2.59891,2.24052 183.82081,0 183.82081,0 0,34.59292 0,34.59292 -193.07756,-0.086 c -155.59478,-0.0693 -194.22647,-0.36172 -198.99565,-1.5065 z"
       id="path3371"
       inkscape:connector-curvature="0" />
  </g>
</svg>
